<svg width="1024" height="1024" xmlns="http://www.w3.org/2000/svg"  enable-background="new 0 0 1024 1024"  style="background-color:transparent" version="1.1">
 <g>
  <title>Safied</title>
  <g stroke="null" id="svg_3">
   <path stroke="null" fill="#FFFFFF" d="m576.71849,598.10776l0,0c-0.15,-0.12513 -195.21962,-151.01704 -162.3049,-250.06495c6.50607,-19.58227 21.28066,-39.25838 40.76138,-58.22545c79.08532,-76.9944 236.08412,-142.29991 236.08412,-142.29991s-472.97446,96.72265 -434.80051,252.4215c14.73709,60.11277 99.86912,111.04961 178.65445,146.21011c73.5261,32.83523 141.53047,51.93785 141.60547,51.95871" id="svg_1"/>
   <path stroke="null" fill="#FFFFFF" d="m767.54135,624.05062c-14.73709,-60.11277 -99.86912,-111.03918 -178.65445,-146.19968c-73.5261,-32.82481 -141.53047,-51.92742 -141.61485,-51.95871c0.15,0.1147 195.21962,151.02747 162.3049,250.06495c-6.50607,19.5927 -21.28066,39.25838 -40.76138,58.22545c-79.07594,76.98397 -236.07474,142.29991 -236.07474,142.29991s472.97446,-96.73307 434.80051,-252.43193" id="svg_2"/>
  </g>
 </g>
</svg>