<svg width="1024" height="1024" xmlns="http://www.w3.org/2000/svg" enable-background="new 0 0 1024 1024"  style="background-color:#BBBBBB" >
 <g id="Layer_1">
  <title>PoliceMend</title>
  <path fill="#1d4a85" stroke-width="0" d="m711.70313,359.34316l71.26563,-120.18698c-63.63541,-37.5717 -152.65205,-62.3546 -263.7582,-16.46277c-91.51464,40.13521 -185.10774,150.0933 -158.05531,305.02508c16.1151,96.27495 109.69101,224.7962 267.45489,229.75274l-37.72536,-147.48606c-48.27259,-18.39832 -88.71742,-56.70266 -94.52435,-129.07649c1.02447,-59.25002 32.40632,-110.36707 84.88978,-132.12856c42.55684,-14.90108 70.8626,-18.68863 130.45292,10.56304z" id="svg_6" stroke="#0000ff" transform="rotate(149.238 569.692 477.642)"/>
  <g id="svg_11">
   <rect fill="#1d4a85" stroke-width="0" x="-157.14355" y="236.08454" width="731.48327" height="138.35203" id="svg_9" stroke="#0000ff" transform="rotate(45 208.598 305.261)"/>
   <rect fill="#1d4a85" stroke-width="0" x="192.32193" y="700.46197" width="509.25071" height="138.35203" id="svg_10" stroke="#0000ff" transform="rotate(90 446.947 769.638)"/>
  </g>
 </g>
</svg>