<?xml version="1.0" encoding="utf-8"?>
<!-- Generator: Adobe Illustrator 16.0.0, SVG Export Plug-In . SVG Version: 6.00 Build 0)  -->
<!DOCTYPE svg PUBLIC "-//W3C//DTD SVG 1.1//EN" "http://www.w3.org/Graphics/SVG/1.1/DTD/svg11.dtd">
<svg version="1.1" id="Capa_1" xmlns="http://www.w3.org/2000/svg" xmlns:xlink="http://www.w3.org/1999/xlink" x="0px" y="0px"
	 width="188.885px" height="69.91px" viewBox="0 0 188.885 69.91" enable-background="new 0 0 188.885 69.91" xml:space="preserve">
<path fill="#E7393F" d="M34.396,43.213L34.396,43.213c-0.016-0.012-20.824-14.483-17.313-23.982c0.694-1.878,2.27-3.765,4.348-5.584
	C29.867,6.263,46.614,0,46.614,0S-3.838,9.276,0.234,24.208c1.572,5.765,10.653,10.65,19.057,14.022
	C27.134,41.379,34.388,43.211,34.396,43.213"/>
<path fill="#E7393F" d="M54.751,45.701c-1.572-5.765-10.653-10.649-19.057-14.021c-7.843-3.148-15.097-4.98-15.106-4.983
	c0.016,0.011,20.824,14.484,17.313,23.982c-0.694,1.879-2.27,3.765-4.348,5.584C25.118,63.646,8.371,69.91,8.371,69.91
	S58.823,60.633,54.751,45.701"/>
<path fill="#595A5C" d="M66.606,44.719c-1.283-0.451-2.368-1.127-3.251-2.024c-0.884-0.897-1.449-1.989-1.693-3.274l4.204-0.924
	c0.145,1.211,0.665,2.123,1.558,2.737c0.896,0.615,2.004,0.921,3.328,0.921c0.811,0,1.512-0.111,2.101-0.338
	c0.589-0.225,1.035-0.535,1.335-0.928c0.3-0.395,0.45-0.836,0.45-1.326c0-0.586-0.208-1.085-0.625-1.497
	c-0.417-0.413-0.937-0.754-1.56-1.022c-0.623-0.269-1.479-0.592-2.568-0.965c-1.424-0.49-2.574-0.943-3.452-1.362
	c-0.878-0.417-1.632-1-2.26-1.749c-0.629-0.749-0.943-1.694-0.943-2.837c0-1.162,0.331-2.167,0.994-3.016
	c0.66-0.851,1.551-1.496,2.667-1.938c1.118-0.442,2.35-0.663,3.694-0.663c1.512,0,2.891,0.295,4.137,0.886
	c1.245,0.59,2.257,1.485,3.036,2.685l-3.52,1.858c-0.411-0.691-0.95-1.227-1.618-1.606s-1.396-0.568-2.185-0.568
	c-0.556,0-1.06,0.09-1.509,0.273c-0.451,0.183-0.807,0.44-1.068,0.77c-0.26,0.331-0.392,0.708-0.392,1.131
	c0,0.518,0.194,0.961,0.583,1.325c0.389,0.365,0.881,0.671,1.476,0.921s1.41,0.548,2.443,0.893c1.468,0.49,2.657,0.95,3.569,1.382
	c0.912,0.432,1.695,1.037,2.353,1.815c0.656,0.777,0.983,1.762,0.983,2.952c0,1.248-0.365,2.338-1.093,3.269
	c-0.729,0.933-1.715,1.646-2.96,2.146c-1.246,0.499-2.624,0.749-4.136,0.749C69.251,45.396,67.892,45.17,66.606,44.719"/>
<path fill="#595A5C" d="M92.076,24.817h3.168l9.39,20.347h-4.569l-1.885-4.42h-9.023l-1.901,4.42h-4.62L92.076,24.817z
	 M96.847,37.619l-3.168-7.431l-3.187,7.431H96.847z"/>
<polygon fill="#595A5C" points="110.432,24.817 127.145,24.817 127.145,28.172 114.669,28.172 114.669,33.313 125.677,33.313 
	125.677,36.668 114.669,36.668 114.669,45.164 110.432,45.164 "/>
<rect x="133.592" y="24.817" fill="#595A5C" width="4.237" height="20.347"/>
<polygon fill="#595A5C" points="146.461,24.817 162.139,24.817 162.139,28.172 150.698,28.172 150.698,33.313 161.356,33.313 
	161.356,36.668 150.698,36.668 150.698,41.708 162.139,41.708 162.139,45.164 146.461,45.164 "/>
<path fill="#595A5C" d="M169.788,24.817h6.838c2.657,0,4.9,0.401,6.73,1.202c1.828,0.801,3.207,1.97,4.136,3.506
	c0.928,1.536,1.393,3.409,1.393,5.616c0,2.113-0.477,3.917-1.426,5.416c-0.951,1.496-2.344,2.64-4.178,3.428
	c-1.835,0.787-4.064,1.18-6.688,1.18h-6.805V24.817z M176.176,41.809c2.746,0,4.845-0.527,6.295-1.584
	c1.451-1.055,2.178-2.803,2.178-5.24c0-1.623-0.274-2.931-0.819-3.925c-0.544-0.993-1.406-1.723-2.584-2.189
	c-1.179-0.465-2.741-0.698-4.688-0.698h-2.534v13.636H176.176z"/>
</svg>
