<svg width="1024" height="1024" xmlns="http://www.w3.org/2000/svg">
 <g id="Layer_1">
  <title>PoliceMend</title>
  <path fill="#bbbbbb" stroke-width="0" opacity="undefined" d="m512,904.37905c-216.77145,0 -392.35633,-175.59504 -392.35633,-392.37904c0,-216.784 175.58488,-392.37904 392.35633,-392.37904c216.77145,0 392.35633,175.59504 392.35633,392.37904c0,216.784 -175.58488,392.37904 -392.35633,392.37904z" id="svg_13" stroke="#0000ff"/>
  <path stroke="#0000ff" id="svg_6" d="m712.79009,358.2562l71.26563,-120.18698c-63.63541,-37.5717 -152.65205,-62.3546 -263.7582,-16.46277c-91.51464,40.13521 -185.10774,150.0933 -158.05531,305.02508c16.1151,96.27495 109.69101,224.7962 267.45489,229.75274l-37.72536,-147.48606c-48.27259,-18.39832 -88.71742,-56.70266 -94.52435,-129.07649c1.02447,-59.25002 32.40632,-110.36707 84.88978,-132.12856c42.55684,-14.90108 70.8626,-18.68863 130.45292,10.56304z" stroke-width="0" fill="#1d4a85" transform="rotate(149.238 570.779 476.555)"/>
  <g id="svg_11">
   <path fill="#bbbbbb" stroke="#0000ff" stroke-width="0" opacity="undefined" d="m108.02745,304.78949l396.89582,-0.11821l0,138.35204l-534.28784,0l137.39202,-138.23383z" id="svg_2" transform="rotate(45 237.779 373.847)"/>
   <path fill="#1d4a85" stroke="#0000ff" stroke-width="0" opacity="undefined" d="m149.652,304.83478l396.89582,-0.11821l0,138.35204l-534.28784,0l137.39202,-138.23383z" id="svg_1" transform="rotate(45 279.404 373.893)"/>
   <rect transform="rotate(90 477.247 907.76)" stroke="#0000ff" id="svg_4" height="138.35203" width="233.59116" y="838.58433" x="360.45154" stroke-width="0" fill="#bbbbbb"/>
   <rect id="svg_10" height="138.35203" width="510.09388" y="699.79726" x="192.98726" stroke-width="0" fill="#1d4a85" stroke="#0000ff" transform="rotate(90 448.034 768.973)"/>
  </g>
 </g>

</svg>