<svg width="1024" height="1024" xmlns="http://www.w3.org/2000/svg">
 <g id="Layer_1">
  <title>PoliceMend</title>
  <path stroke="#0000ff" id="svg_13" d="m512,904.37905c-216.77145,0 -392.35633,-175.59504 -392.35633,-392.37904c0,-216.784 175.58488,-392.37904 392.35633,-392.37904c216.77145,0 392.35633,175.59504 392.35633,392.37904c0,216.784 -175.58488,392.37904 -392.35633,392.37904z" opacity="undefined" stroke-width="0" fill="#bbbbbb"/>
  <path transform="rotate(149.238 570.779 476.555)" fill="#1d4a85" stroke-width="0" d="m712.79009,358.2562l71.26563,-120.18698c-63.63541,-37.5717 -152.65205,-62.3546 -263.7582,-16.46277c-91.51464,40.13521 -185.10774,150.0933 -158.05531,305.02508c16.1151,96.27495 109.69101,224.7962 267.45489,229.75274l-37.72536,-147.48606c-48.27259,-18.39832 -88.71742,-56.70266 -94.52435,-129.07649c1.02447,-59.25002 32.40632,-110.36707 84.88978,-132.12856c42.55684,-14.90108 70.8626,-18.68863 130.45292,10.56304z" id="svg_6" stroke="#0000ff"/>
  <g id="svg_11">
   <rect transform="rotate(90 448.034 768.973)" stroke="#0000ff" fill="#1d4a85" stroke-width="0" x="192.98726" y="699.79726" width="510.09388" height="138.35203" id="svg_10"/>
   <path transform="rotate(45 279.404 373.893)" id="svg_9" d="m149.652,304.83478l396.89582,-0.11821l0,138.35204l-534.28784,0l137.39202,-138.23383z" opacity="undefined" stroke-width="0" stroke="#0000ff" fill="#1d4a85"/>
  </g>
 </g>

</svg>