<?xml version="1.0" encoding="utf-8" ?>
<svg xmlns="http://www.w3.org/2000/svg" xmlns:xlink="http://www.w3.org/1999/xlink" width="100" height="100" enable-background="new 0 0 100 100"  style="background-color:#1D4A85">
	<path fill="#FFFFFF" transform="scale(0.15625 0.15625)" d="M271.102 82.9288C276.338 82.6472 281.925 82.4592 287.14 82.9498C330.618 87.0398 359.993 119.116 367.846 160.539L368.203 163.291C372.362 213.272 338.278 258.113 287.263 262.435C237.44 267.456 193.095 229.411 189.225 179.264C185.464 130.531 222.01 86.5778 271.102 82.9288Z"/>
	<path fill="#FFFFFF" transform="scale(0.15625 0.15625)" d="M290.332 308.87L312.295 308.86C316.228 308.876 321.951 308.21 325.497 309.824L325.938 310.033C330.999 312.354 334.669 316.946 333.833 322.751L333.751 323.281C331.953 335.747 314.197 330.463 314.179 356.471L314.187 425.195C314.185 432.262 315.724 451.707 313.091 457.407L312.827 457.969C307.045 470.601 296.481 468.756 285.066 468.763L140.244 468.748L123.123 468.752C120.553 468.75 117.373 469.078 114.891 468.492C102.997 465.686 95.5908 454.547 95.4071 442.651L95.3668 381.28C95.4011 366.796 97.9883 363.393 111.163 355.768L127.469 347.057C177.871 322.245 234.161 308.997 290.332 308.87Z"/>
	<path fill="#FFFFFF" transform="scale(0.15625 0.15625)" d="M444.48 265.77L447.803 265.722C477.036 265.692 503.048 287.15 507.642 316.125C508.591 322.106 508.466 328.018 508.47 334.05L508.465 355.63C532.723 355.627 540.009 359.708 540.085 385.02L540.091 489.297C540.088 501.815 539.238 515.566 523.103 518.554C520.802 518.98 518.157 518.746 515.808 518.749L454.531 518.746L384.61 518.761C368.075 518.741 358.79 513.12 358.724 496.061L358.717 381.869C358.721 378.781 358.559 375.582 358.838 372.51C360.135 358.207 375.262 354.698 387.476 356.014L387.837 330.896C387.847 325.319 387.816 319.742 388.696 314.219C393.082 286.682 417.831 268.156 444.48 265.77ZM431.423 409.21C419.037 409.811 409.206 417.649 406.254 429.688L406.1 430.287C402.111 446.234 416.931 461.505 433.414 461.245C463.983 457.332 466.844 418.855 440.059 410.301L437.394 409.613C436.077 409.299 432.605 408.744 431.423 409.21ZM447.319 305.135C427.524 306.26 427.218 321.942 427.218 336.469L427.237 355.427L449.844 355.624L469.16 355.625L469.298 336.412C469.293 331.64 469.788 326.2 468.793 321.538C466.811 312.257 457.077 303.942 447.319 305.135Z"/>
</svg>
