<?xml version="1.0" encoding="utf-8" ?>
<svg xmlns="http://www.w3.org/2000/svg" xmlns:xlink="http://www.w3.org/1999/xlink" width="100" height="100" enable-background="new 0 0 100 100"  style="background-color:#1D4A85">
	<path fill="#FFFFFF" transform="scale(0.15625 0.15625)" d="M360.469 169.057L312.863 169.086L312.853 187.217C312.843 192.58 313.215 198.321 305.394 199.011C299.662 199.517 293.465 199.067 287.691 199.048L279.388 198.985C277.993 198.949 276.4 199.006 275.074 198.521L274.688 198.368C267.788 195.726 268.412 190.947 268.392 184.816L268.382 169.221C264.862 168.894 261.196 169.093 257.66 169.089L238.097 169.067C234.831 169.061 229.697 169.68 226.661 168.501L224.66 167.672C218.949 164.899 219.678 159.407 219.659 154.099L219.66 145.935C219.668 143.947 219.477 141.899 220.402 140.071L220.603 139.688C221.671 137.606 223.068 136.195 224.998 134.917L225.469 134.613C229.255 132.135 236.417 133.503 240.727 133.492L268.379 133.44L268.397 117.859C268.41 110.731 268.37 103.581 277.612 103.004C283.481 102.638 289.564 102.923 295.457 102.937C308.74 102.969 312.938 101.8 312.911 118.252L313.058 133.471L434.281 133.505C435.011 132.944 435.8 130.318 436.343 129.382C445.478 113.633 461.478 104.12 479.538 102.312L480.469 102.222C515.682 100.52 542.494 130.09 537.55 165.156C535.205 181.793 522.813 198.554 506.987 204.844C506.013 205.231 503.348 205.631 502.825 206.495C502.569 206.919 502.817 286.634 502.811 295.655C502.805 303.084 502.691 311.65 492.969 311.906L482.051 311.991C467.747 311.979 467.297 305.755 467.251 294.219L467.106 207.047C465.755 206.27 464.42 206.154 463.019 205.595C447.225 199.295 435.977 185.629 431.876 169.188L360.469 169.057Z"/>
	<path fill="#FFFFFF" transform="scale(0.15625 0.15625)" d="M375.63 464.185C374.472 461.734 373.935 458.542 372.572 456.346L253.452 456.326C252.372 457.902 252.11 460.276 251.268 462.084C228.318 511.337 160.299 514.086 136.902 465.898C131.913 455.624 136.917 456.332 127.545 456.334L94.6743 456.384C83.866 456.411 67.7787 459.059 67.4504 442.658L67.385 364.004C67.3368 343.687 70.1771 342.767 87.9762 342.751L181.341 342.767C183.261 340.623 184.443 337.131 185.964 334.587L225.389 267.567C228.908 261.676 230.381 257.556 237.973 256.667L376.308 256.659C389.055 256.675 391.031 267.595 396.909 277.676L428.597 331.329C429.137 332.236 435.094 342.465 435.392 342.637C436.342 343.185 509.801 342.764 517.841 342.762L533.259 342.755C541.882 342.756 553.391 342.609 553.941 354.902L553.999 430.057C553.992 439.645 556.453 451.702 544.954 455.698L544.55 455.833C542.526 456.53 540.127 456.333 538.005 456.335L491.931 456.334C490.888 457.588 490.858 459.45 490.297 460.938C471.457 510.897 398.564 514.318 375.63 464.185Z"/>
</svg>
