<?xml version="1.0" encoding="utf-8" ?>
<svg xmlns="http://www.w3.org/2000/svg" xmlns:xlink="http://www.w3.org/1999/xlink" width="100" height="100" enable-background="new 0 0 100 100"  style="background-color:#1D4A85">
	<path fill="#FFFFFF" transform="scale(0.15625 0.15625)" d="M385.105 281.754L119.593 281.786L119.246 155.969C119.248 150.982 118.766 145.471 119.378 140.558C121.013 127.448 130.927 117.382 144.26 116.059L378.335 115.923C381.814 115.931 385.327 115.809 388.776 116.338C397.721 117.711 407.801 127.228 409.574 136.163C410.788 142.283 410.309 148.934 410.312 155.158L410.297 281.708L385.105 281.754Z"/>
	<path fill="#FFFFFF" transform="scale(0.15625 0.15625)" d="M119.237 375.391L119.176 310.781L410.306 310.775L410.432 502.9L492.089 502.861C494.634 502.855 497.67 503.158 500.166 502.703C516.619 499.701 513.783 482.256 513.785 470.569L513.752 302.813C512.675 301.624 498.223 303.694 494.827 300.86L494.531 300.607C490.001 296.897 489.297 294.056 489.267 288.585L489.204 220.198C489.188 217.513 489.299 214.742 488.967 212.075C487.963 210.653 481.178 204.511 479.213 202.507L453.111 176.364C441.051 164.399 439.803 163.7 451.719 152.373C455.206 149.057 458.463 145.63 462.273 142.661C464.037 143.7 465.736 145.373 467.213 146.777L552.491 231.678C556.538 235.56 561.853 239.726 564.868 244.456L565.13 244.877C566.491 247.008 566.239 249.251 566.247 251.674L566.27 288.713C566.238 303.614 555.352 302.544 543.847 302.499L543.871 473.399C543.87 479.659 544.429 486.437 543.685 492.618C541.05 514.49 520.744 533.515 498.594 533.721L144.316 533.748C117.384 533.743 119.25 528.91 119.239 506.396L119.237 375.391ZM266.624 353.121L243.737 387.917C238.399 396.479 231.657 406.041 228.761 415.748C221.31 440.718 240.7 463.987 266.293 464.483C277.227 464.078 286.982 460.4 294.626 452.282C313.099 432.663 304.653 412.847 292.93 393.747L282.671 377.128C277.677 369.107 273.035 360.082 266.624 353.121Z"/>
</svg>
