<?xml version="1.0" encoding="utf-8" ?>
<svg xmlns="http://www.w3.org/2000/svg" xmlns:xlink="http://www.w3.org/1999/xlink" width="100" height="100" enable-background="new 0 0 100 100"  style="background-color:#1D4A85">
	<path fill="#FFFFFF" transform="scale(0.15625 0.15625)" d="M374.282 523.752L428.492 523.972C430.682 523.981 433.193 523.775 435.338 524.167C448.388 526.553 446.909 546.767 434.484 547.245L215.321 547.21C212.255 547.208 209.028 547.432 205.985 547.129C193.854 545.919 194.479 526.01 205.925 524.004C207.773 523.679 210.008 523.906 211.893 523.919L269.359 523.882L269.337 471.963C264.669 471.621 259.821 471.873 255.136 471.872L116.523 471.878C100.19 471.872 94.9355 473.602 94.9142 453.429L94.8705 131.015C95.0154 124.9 98.491 120.454 104.694 119.465L531.858 119.463C537.439 119.479 543.212 120.1 545.828 126.006L545.997 126.406C546.538 127.629 546.74 128.679 546.801 130.008L546.871 460.611C546.84 475.134 529.672 471.874 520.138 471.874L372.598 471.811C371.97 473.861 372.473 477.741 372.477 479.979L372.528 516.533C372.532 518.807 372.274 521.408 372.72 523.639L374.282 523.752ZM435.115 223.258C409.767 224.951 396.695 249.495 411.352 271.361L355.476 335.634C344.751 331.703 334.992 333.968 326.169 340.398L303.394 327.186C305.822 310.219 299.419 291.302 280.485 288.764L279.276 288.595C257.722 285.57 239.514 307.189 248.883 327.435C249.173 328.06 251.068 331.52 250.924 332.018C250.347 334.016 243.604 339.393 241.951 341.014L230.565 352.714C228.295 355.053 225.817 357.261 223.727 359.762C180.509 338.303 156.533 402.061 200.7 413.816C223.662 417.868 243.417 397.895 236.406 374.638C236.345 374.436 235.695 372.733 235.722 372.651C236.211 371.153 245.427 362.469 247.078 360.785L264.342 342.935C274.998 346.379 280.839 346.269 290.515 341.337L291.884 340.624L315.85 355.097C314.676 364.116 315.173 373.29 320.924 380.773C342.105 408.331 388.229 383.877 369.287 346.296L425.554 281.039C434.594 283.245 442.963 283.472 451.161 278.403C476.803 262.547 464.506 224.096 435.115 223.258ZM293.151 471.867L292.951 519.442C292.948 520.882 292.753 522.588 293.063 523.971L348.281 523.958C349.214 518.29 348.773 512.126 348.773 506.381L348.768 471.931L293.151 471.867Z"/>
</svg>
