<?xml version="1.0" encoding="utf-8" ?>
<svg xmlns="http://www.w3.org/2000/svg" xmlns:xlink="http://www.w3.org/1999/xlink" width="100" height="100" enable-background="new 0 0 100 100"  style="background-color:#1D4A85">
	<path fill="#FFFFFF" transform="scale(0.15625 0.15625)" d="M323.031 187.682L187.314 187.639C186.754 182.128 187.116 176.25 187.107 170.687C187.094 162.88 185.31 154.858 193.281 150.237C199.742 146.49 206.875 143.453 213.537 140.013L308.6 90.2687C312.016 88.3718 315.247 86.4461 319.022 85.3442L319.892 85.3027C326.644 85.0555 332.288 89.947 337.971 92.9632L438.725 145.393C453.269 153.166 454.751 148.913 454.755 167.206L454.743 187.785L323.031 187.682Z"/>
	<path fill="#FFFFFF" transform="scale(0.15625 0.15625)" d="M507.615 275.86L110.234 275.855C87.0438 275.822 84.5858 276.174 84.558 254.531L84.4528 233.415C84.408 219.224 98.0633 220.418 107.789 220.4L135.425 220.38L530.927 220.404C539.439 220.414 557.234 218.179 557.477 231.562L557.505 254.207C557.485 266.003 557.92 276.086 543.241 275.922L507.615 275.86Z"/>
	<path fill="#FFFFFF" transform="scale(0.15625 0.15625)" d="M407.101 525.537L365.32 525.581C364.822 524.231 365.04 522.043 365.02 520.576L364.962 421.896C364.926 402.687 361.279 398.766 340.263 398.751L301.224 398.741C297.503 398.745 292.557 398.191 288.972 399.239L288.594 399.356C283.407 400.87 278.488 404.872 277.241 410.312L277.138 410.781C276.298 414.463 276.753 418.891 276.757 422.689L276.815 525.499L125.729 525.505C111.55 525.293 108.733 517.143 108.716 504.541L108.822 307.992L533.053 308.283C533.372 310.603 533.139 313.183 533.14 315.544L533.214 511.836C532.943 518.095 527.902 523.645 521.866 525.005L520.328 525.345C516.5 525.892 512.241 525.542 508.354 525.543L407.101 525.537Z"/>
</svg>
