<?xml version="1.0" encoding="utf-8" ?>
<svg xmlns="http://www.w3.org/2000/svg" xmlns:xlink="http://www.w3.org/1999/xlink" width="100" height="100" enable-background="new 0 0 100 100"  style="background-color:#1D4A85">
	<path fill="#FFFFFF" transform="scale(0.15625 0.15625)" d="M312.855 433.73C310.399 465.125 316.405 494.594 334.294 521.205C335.105 522.411 340.316 530.738 341.019 531.229L133.455 531.588C124.285 531.68 112.526 532.414 111.648 519.228C111.179 512.184 111.556 504.894 111.555 497.822L111.59 103.024C111.931 96.0437 117.522 91.5705 124.162 91.0604L441.094 91.1672C454.585 92.5421 452.268 107.704 452.261 117.181L452.233 306.666C452.232 311.691 454.158 315.019 449.703 315.081C378.918 316.076 321.78 362.038 312.855 433.73ZM175.118 170.899L175.239 214.922L214.93 214.905L215.114 175.403C215.111 174.042 215.281 172.443 214.963 171.118L175.118 170.899ZM175.287 260.826L175.251 304.402L214.968 304.447L215.183 260.837L175.287 260.826ZM175.337 350.041L175.208 393.693L214.841 393.701L215.048 350.254L175.337 350.041ZM175.291 439.644L175.246 482.48L214.988 482.429L215.18 439.826C214.29 439.47 212.998 439.628 212.029 439.629L175.291 439.644Z"/>
	<path fill="#FFFFFF" transform="scale(0.15625 0.15625)" d="M456.013 556.779C450.143 556.945 443.963 557.256 438.125 556.731C386.391 552.079 342.753 509.868 338.633 457.679C333.874 397.404 380.377 344.876 440.264 340.131C493.908 337.385 541.617 369.063 555.075 422.063C556.117 426.166 556.519 430.357 557.285 434.502L557.703 437.566C563.371 499.7 517.386 551.241 456.013 556.779ZM507.207 399.44C498.454 401.318 491.078 412.264 484.994 418.304L447.909 454.785C444.644 458.002 441.762 461.634 438.433 464.776L423.852 450.279C420.354 446.735 416.745 442.247 412.502 439.625C402.676 433.552 392.706 442.278 393.402 452.656C393.655 456.441 397.617 459.669 400.122 462.164L407.587 469.368L419.341 480.793C436.413 498.09 436.081 501.652 455.627 482.723L519.112 419.814C527.715 410.399 518.126 399.022 507.378 399.438L507.207 399.44Z"/>
</svg>
