<?xml version="1.0" encoding="utf-8" ?>
<svg xmlns="http://www.w3.org/2000/svg" xmlns:xlink="http://www.w3.org/1999/xlink" width="100" height="100" enable-background="new 0 0 100 100"  style="background-color:#1D4A85">
	<path fill="#FFFFFF" transform="scale(0.15625 0.15625)" d="M309.219 556.538L137.748 556.556C126.703 556.567 110.08 559.665 109.493 543.401L109.47 115.036C109.476 108.79 109.07 102.222 109.595 96.0143C110.398 86.5057 119.057 85.6021 126.12 85.5993L332.395 85.5912L520.838 85.5951C530.001 85.955 532.133 94.0967 532.168 101.516L532.134 541.488C532.071 547.948 530.3 553.8 523.391 555.924L522.9 556.068C520.446 556.8 517.651 556.547 515.106 556.544L309.219 556.538ZM223.067 201.917C221.706 203.329 222.246 222.29 222.256 225.407L418.281 225.541C419.668 223.489 419.293 220.582 419.302 218.334L419.256 201.911L223.067 201.917ZM378.484 272.752L313.004 338.128C311.035 340.062 309.23 342.422 307.051 344.08C301.141 339.734 295.963 334.325 290.805 329.133L268.102 306.005L251.664 322.974L268.531 339.578L306.416 376.772L395.141 289.055L378.484 272.752ZM221.94 432.621L222.244 456.284L419.396 456.294L419.329 432.8L221.94 432.621Z"/>
</svg>
