<?xml version="1.0" encoding="utf-8" ?>
<svg xmlns="http://www.w3.org/2000/svg" xmlns:xlink="http://www.w3.org/1999/xlink" width="100" height="100" enable-background="new 0 0 100 100"  style="background-color:#1D4A85">
	<path fill="#FFFFFF" transform="scale(0.15625 0.15625)" d="M313.434 284.746C303.413 284.736 293.851 283.771 284.121 281.162C247.198 271.263 215.502 236.156 214.993 197.146L214.95 171.843C214.948 165.37 214.671 158.775 215.463 152.344C221.331 104.756 263.564 69.3309 310.788 69.0427C337.636 69.2898 360.322 76.2395 380.156 95.7384C408.273 123.38 409.646 147.971 409.626 183.524L409.591 195.287C409.149 246.357 363.513 284.355 313.434 284.746Z"/>
	<path fill="#FFFFFF" transform="scale(0.15625 0.15625)" d="M490.754 388.46C456.893 388.241 428.99 371.508 419.797 337.158C408.19 293.788 440.509 251.596 485.51 249.209L494.275 249.477C525.917 251.933 553.358 278.202 557.584 309.601C562.563 346.596 535.784 385.44 497.165 388.25C495.066 388.403 492.851 388.673 490.754 388.46ZM484.89 285.743C442.313 291.068 444.725 353.818 490.388 352.751C535.068 347.763 528.699 283.705 484.89 285.743Z"/>
	<path fill="#FFFFFF" transform="scale(0.15625 0.15625)" d="M542.869 485.781L542.854 497.231C542.786 518.127 535.481 518.669 515.898 518.684L105.938 518.735C99.1887 518.546 93.235 513.646 91.3524 507.239L91.0759 506.34C90.3381 504.047 90.6665 500.926 90.6638 498.514L90.6408 405.127C90.6505 383.2 87.3768 381.199 109.882 370.67L215.84 320.11C219.426 318.359 223.195 316.145 227.036 315.042L229.458 314.422C245.297 313.8 248.461 329.948 253.857 341.542L285.247 404.062C285.908 405.243 286.581 406.04 287.054 407.371L287.19 344.301C287.202 334.706 288.393 325.257 301.058 324.644L318.102 324.617C326.304 324.653 337.159 324.457 339.183 335.582C339.587 337.806 339.341 340.369 339.345 342.64L339.35 408.225C339.773 406.244 340.674 405.756 341.622 404.193L381.102 331.043C381.314 335.691 382.336 340.107 383.568 344.58C393.608 381.028 424.446 410.782 461.214 419.604C484.136 425.104 514.251 423.202 535.838 414.107C537.773 413.292 540.838 412.654 542.517 411.524L542.869 485.781Z"/>
</svg>
