<?xml version="1.0" encoding="utf-8" ?>
<svg xmlns="http://www.w3.org/2000/svg" xmlns:xlink="http://www.w3.org/1999/xlink" width="100" height="100" enable-background="new 0 0 100 100"  style="background-color:#1D4A85">
	<path fill="#FFFFFF" transform="scale(0.15625 0.15625)" d="M508.886 555.552L130.406 555.68C114.176 555.001 117.095 536.531 117.093 525.837L117.044 96.6502C117.301 89.1095 122.492 84.0736 129.82 83.2356L506.496 83.1532C509.001 83.1633 512.016 82.9387 514.376 83.8589L514.844 84.0589C519.85 86.1596 523.363 91.1771 523.483 96.5757L523.49 539.24C523.481 541.112 523.653 543.507 522.977 545.277L522.837 545.625C520.413 552.067 515.703 554.842 508.886 555.552ZM413.052 144.018L372.698 144.038C371.073 144.041 369.253 143.896 367.656 144.22C360.145 145.74 358.335 161.506 369.907 163.451C380.661 165.258 397.826 163.11 409.786 163.935L409.736 201.837L409.713 220.288C409.715 222.73 409.316 226.102 409.936 228.429C412.082 236.488 427.798 237.018 428.951 228.361C429.379 225.144 429.049 221.46 429.052 218.2L429.036 167.059C429.024 154.389 431.814 141.301 413.115 143.982L413.052 144.018ZM239.933 177.867C230.455 178.813 221.456 185.203 219.611 194.941C218.746 199.503 219.233 204.796 219.246 209.441L219.241 244.614C219.236 246.144 218.984 248.196 219.242 249.668L353.263 250.058L367.278 250.103C369.464 250.108 371.931 250.365 374.06 250.005L374.044 203.475C374.009 189.452 367.217 178.589 351.904 177.919L239.933 177.867ZM318.597 312.23C313.093 313.87 311.303 319.232 308.405 323.738L282.077 363.836C268.072 384.825 255.354 401.506 263.231 427.884C270.884 453.51 295.22 469.695 321.414 469.366L321.62 469.015C337.349 468.508 352.237 462.762 362.916 450.821C377.335 434.698 383.588 411.385 374.096 391.329C370.332 383.378 365.549 375.941 360.766 368.574L332.418 324.725C328.639 318.811 326.667 311.481 318.597 312.23Z"/>
</svg>
