<?xml version="1.0" encoding="utf-8" ?>
<svg xmlns="http://www.w3.org/2000/svg" xmlns:xlink="http://www.w3.org/1999/xlink" width="100" height="100" enable-background="new 0 0 100 100"  style="background-color:#1D4A85">
	<path fill="#FFFFFF" transform="scale(0.15625 0.15625)" d="M490.303 553.392L160.831 553.397C157.484 553.393 152.767 553.967 149.656 552.828L149.229 552.656C137.586 548.069 140.745 532.635 140.74 522.745L140.807 93.0845C141.162 84.5212 147.73 81.8109 155.333 81.3818L368.58 81.3093L368.679 179.031C368.691 196.008 369.79 198.185 385.656 198.206L492.758 198.238C496.887 198.245 501.238 198.003 505.322 198.573L505.347 534.625C505.347 537.667 505.814 541.652 504.894 544.54L504.734 545C502.659 551.248 496.256 553.114 490.303 553.392ZM361.002 275.476C357.669 275.675 355.712 278.596 353.419 280.732L334.18 299.977C327.621 306.836 327.746 304.909 327.745 314.792L327.744 334.951C327.738 347.015 328.593 344.483 320.491 352.955L306.789 367.062C301.134 372.756 295.509 379.13 289.414 384.308L288.589 385.008C287.078 386.218 282.146 385.639 280.15 385.638L257.146 385.629C254.749 385.63 250.757 385.139 248.553 385.954C247.056 386.508 217.176 418.418 215.061 421.73L215.129 443.899C215.143 447.478 214.778 451.6 215.417 455.098C216.073 458.685 220.178 460.045 222.969 458.076C226.287 455.735 229.327 452.288 232.271 449.485L249.038 433.677C258.336 424.959 256.437 425.835 267.985 435.535L276.847 443.081C279.005 444.942 281.323 446.763 282.872 449.186C279.733 456.235 256.437 477.58 256.759 481.602C257.551 483.373 258.596 484.434 260.205 485.496L288.232 485.69C289.481 484.92 290.532 484.156 291.57 483.224L310.719 464.582C317.669 457.816 319.576 458.766 319.632 449.369L319.606 425.642C319.609 412.431 320.343 415.166 330.077 405.362L354.3 380.283C356.422 377.96 356.727 376.689 359.994 376.681L398.411 376.637C400.522 376.527 400.784 375.938 402.301 374.431L423.746 352.812C426.002 350.454 428.617 348.111 430.407 345.373L430.615 345.065C431.752 343.232 431.467 312.292 430.673 308.971C428.93 307.695 427.028 306.336 424.858 305.957C419.299 310.207 414.478 316.37 409.775 321.545L390.679 341.638L373.694 333.276C372.465 332.584 371.508 331.787 370.475 330.84C370.728 323.07 370.14 316.396 366.744 309.278C372.913 300.176 388.984 288.196 392.44 280.367C389.219 273.847 386.552 275.52 380.034 275.503L361.002 275.476Z"/>
	<path fill="#FFFFFF" transform="scale(0.15625 0.15625)" d="M487.969 176.787L390.154 177.004L390.062 90.8413L487.969 176.787Z"/>
</svg>
