<?xml version="1.0" encoding="utf-8" ?>
<svg xmlns="http://www.w3.org/2000/svg" xmlns:xlink="http://www.w3.org/1999/xlink" width="100" height="100" enable-background="new 0 0 100 100"  style="background-color:#1D4A85">
	<path fill="#FFFFFF" transform="scale(0.15625 0.15625)" d="M493.053 556.192L149.894 556.055C136.474 555.321 138.743 540.232 138.746 530.989L138.779 98.2443C138.941 91.2262 142.985 87.1099 149.875 86.3659L492.959 86.3674C501.725 86.7935 503.054 95.0793 503.06 101.928L503.089 538.42C503.099 547.12 503.578 554.383 493.053 556.192ZM321.163 169.685C316.455 171.644 313.046 174.909 308.959 177.825C300.99 183.511 292.881 184.378 283.316 184.374L268.548 184.357C266.117 184.353 263.035 183.973 260.717 184.706C252.022 187.453 250.742 200.748 257.545 206.101C260.834 208.689 261.526 206.898 261.604 211.46L261.661 246.285C261.701 283.458 271.344 286.369 300.504 307.433L316.412 319.852C317.944 320.94 319.425 321.76 321.355 321.581C328.846 318.463 335.338 311.881 341.827 307.024C354.336 297.661 370.41 289.009 376.711 273.849L379.122 266.391C382.703 257.491 377.493 212.318 380.268 207.819L380.714 207.733C390.218 205.653 391.732 190.164 383.295 185.737C380.049 184.034 375.824 184.411 372.255 184.406L357.327 184.411C353.969 184.413 350.303 184.633 347.021 183.854C337.577 181.612 324.333 169.6 321.163 169.685ZM219.378 354.025L219.249 378.236L422.062 378.299L422.464 354.178L219.378 354.025ZM408.95 423.103L219.469 423.112C218.817 424.204 219.193 444.775 219.191 447.512L232.697 447.45L422.435 447.516L422.463 423.079L408.95 423.103Z"/>
	<path fill="#FFFFFF" transform="scale(0.15625 0.15625)" d="M321.22 293.493C316.844 290.733 312.691 287.413 308.522 284.343C284.859 266.913 285.377 268.231 285.381 240.869L285.39 208.685C302.775 208.047 304.534 208.104 319.841 199.219C321.79 199.016 322.866 199.882 324.552 200.84C337.252 208.05 341.761 208.288 356.111 208.397C356.748 217.355 356.22 226.741 356.223 235.741L356.218 249.822C356.198 268.642 351.496 271.626 336.466 282.325L321.22 293.493Z"/>
</svg>
