<?xml version="1.0" encoding="utf-8" ?>
<svg xmlns="http://www.w3.org/2000/svg" xmlns:xlink="http://www.w3.org/1999/xlink" width="100" height="100" enable-background="new 0 0 100 100"  style="background-color:#1D4A85">
	<path fill="#FFFFFF" transform="scale(0.15625 0.15625)" d="M323.942 509.222L128.85 509.227C126.104 509.225 123.073 509.426 120.424 508.631L119.844 508.451C108.677 505.047 109.773 495.665 109.764 486.347L109.793 316.328C109.807 297.945 109.167 298.583 123.405 285.004L173.848 236.735C182.164 229.506 189.147 234.39 195.796 240.719L236.681 279.369C237.612 280.184 238.846 280.728 239.605 281.684L239.969 282.166C240.515 279.745 240.159 276.42 240.165 273.906L240.147 161.625C240.147 159.514 239.841 156.717 240.463 154.703L241.27 152.5C243.855 147.096 251.349 141.836 255.647 137.745L299.049 96.3701C304.706 91.0054 310.701 83.0992 318.228 80.3898L319.535 80.2857C328.322 80.0044 332.101 86.1339 337.795 91.7253L393.445 144.531C402.019 152.587 401.835 152.302 401.84 163.444L401.982 282.345C403.201 282.139 436.21 250.45 440.242 246.605L447.557 239.458C457.734 229.365 464.067 232.054 473.946 241.916L514.957 281.972C525.163 291.8 532.233 292.692 532.26 307.284L532.231 496.875C532.003 502.382 526.994 507.386 521.911 508.782L521.435 508.906C519.556 509.407 517.593 509.258 515.662 509.247L323.942 509.222Z"/>
</svg>
