<?xml version="1.0" encoding="utf-8" ?>
<svg xmlns="http://www.w3.org/2000/svg" xmlns:xlink="http://www.w3.org/1999/xlink" width="100" height="100" enable-background="new 0 0 100 100"  style="background-color:#1D4A85">
	<path fill="#FFFFFF" transform="scale(0.15625 0.15625)" d="M512.969 280.085L94.2795 279.839L94.2721 136.107C94.2592 130.932 93.7272 125.084 94.4591 119.98C96.4744 105.93 108.223 95.6747 122.084 93.8616L507.981 93.7195C526.763 93.7465 540.692 103.984 541.503 123.177L541.559 280.064L512.969 280.085ZM158.694 141.623L158.56 233.946L206.924 233.92L207.117 149.751C207.108 147.274 207.47 144.039 206.94 141.657L158.694 141.623ZM254.319 141.623L254.294 233.94L321.406 233.92C322.472 231.854 322.04 228.833 322.037 226.744L321.965 141.725L254.319 141.623Z"/>
	<path fill="#FFFFFF" transform="scale(0.15625 0.15625)" d="M532.098 529.11C525.653 535.47 517.893 538.169 509.066 538.208L132.971 538.246C128.931 538.247 124.513 538.587 120.517 538.06C108.68 536.502 97.1493 525.914 95.0013 514.062C93.7219 507.003 94.3173 499.228 94.3138 492.066L94.3148 326.346L541.372 326.304C541.771 329.787 541.519 333.508 541.527 337.028L541.567 500.047C541.587 511.433 540.405 520.278 532.098 529.11Z"/>
</svg>
