<?xml version="1.0" encoding="utf-8" ?>
<svg xmlns="http://www.w3.org/2000/svg" xmlns:xlink="http://www.w3.org/1999/xlink" width="100" height="100" enable-background="new 0 0 100 100"  style="background-color:#1D4A85">
	<path fill="#FFFFFF" transform="scale(0.15625 0.15625)" d="M471.719 527.865L136.305 527.877C123.535 527.869 112.365 526.459 112.254 510.469L112.236 172.708C112.249 150.089 112.143 143.85 138.855 143.828L165.464 143.838C165.744 140.746 165.554 137.511 165.558 134.404L165.523 116.241C165.438 101.488 165.099 100.363 178.511 92.4434L202.751 77.4665C207.118 74.6454 211.143 71.3609 216.018 69.4499L218.054 69.2809C223.604 69.2166 227.721 72.8714 232.144 75.6996L259.072 92.8344C272.419 100.874 271.23 101.608 271.241 115.781L271.227 143.754C274.612 144.122 278.299 143.825 281.712 143.822L303.703 143.813C322.074 143.818 325.735 148.634 325.76 165.494L325.906 243.168C327.556 241.75 329.814 240.958 331.779 239.929L356.94 227.665C363.002 224.649 368.89 221.077 375.035 218.281C383.504 214.429 390.977 220.852 398.475 224.271L530.957 281.936C539.175 285.682 548.543 288.689 548.765 299.473L548.817 505.787C548.819 522.285 544.471 528.033 528.421 527.903L471.719 527.865Z"/>
</svg>
