<?xml version="1.0" encoding="utf-8" ?>
<svg xmlns="http://www.w3.org/2000/svg" xmlns:xlink="http://www.w3.org/1999/xlink" width="100" height="100" enable-background="new 0 0 100 100"  style="background-color:#1D4A85">
	<path fill="#FFFFFF" transform="scale(0.15625 0.15625)" d="M323.281 376.209L260.89 376.217C249.491 376.233 238.382 379.878 236.223 393.094C235.605 396.876 236.141 401.427 236.15 405.294L236.227 532.302C233.298 532.808 229.587 532.399 226.577 532.391L131.637 532.373C124.233 532.184 119.89 528.146 116.647 521.587C115.057 518.373 115.703 513.77 115.701 510.279L115.667 251.885C115.957 244.682 120.877 241.049 126.13 236.984L292.704 105.613C299.538 100.197 310.453 88.5737 319.021 86.9703C326.835 86.4822 330.725 90.483 336.496 95.0822L520.7 240.808C524.377 243.958 526.184 247.618 526.345 252.407L526.355 517.006C525.866 531.977 513.124 532.414 502.492 532.379L406.102 532.32C405.828 528.059 406.002 523.706 405.996 519.431L406.007 404.971C406.012 400.846 406.445 396.182 405.61 392.149C403.028 379.677 392.754 376.224 381.822 376.215L323.281 376.209Z"/>
	<path fill="#FFFFFF" transform="scale(0.15625 0.15625)" d="M363.621 532.514L278.716 532.382C278.241 528.717 278.583 524.685 278.579 520.97L278.568 418.111L363.499 418.36L363.621 532.514Z"/>
</svg>
