<?xml version="1.0" encoding="utf-8" ?>
<svg xmlns="http://www.w3.org/2000/svg" xmlns:xlink="http://www.w3.org/1999/xlink" width="100" height="100" enable-background="new 0 0 100 100"  style="background-color:#1D4A85">
	<path fill="#FFFFFF" transform="scale(0.15625 0.15625)" d="M322.969 200.144L226.106 200.109C221.903 200.071 219.455 199.922 216.662 196.535C211.377 190.125 206.882 182.805 202.061 176.024L186.01 153.469C180.535 145.724 170.216 135.082 182.862 128.717L301.717 75.4383C307.622 72.6385 313.681 69.2546 320.014 67.5553L320.622 67.4978C322.467 67.3819 324.647 68.2506 326.333 68.9507L450.841 124.813C470.969 133.577 467.584 136.646 457.576 150.895L428.777 191.219C421.299 201.619 422.287 200.235 410.226 200.177L322.969 200.144Z"/>
	<path fill="#FFFFFF" transform="scale(0.15625 0.15625)" d="M385.578 325.843C360.073 350.907 318.267 357.515 285.477 344.505C255.937 332.784 230.336 301.352 227.524 269.267C227.085 264.256 226.547 226.609 227.587 224.849L231.777 224.505L394.645 224.6C400.946 224.6 407.798 224.037 413.998 224.931C414.44 226.057 414.412 227.54 414.428 228.75L414.453 252.321C414.446 258.221 414.669 264.247 414.034 270.116C411.754 291.188 400.167 310.961 385.578 325.843Z"/>
	<path fill="#FFFFFF" transform="scale(0.15625 0.15625)" d="M430.781 524.087L129.563 524.082C116.893 524.063 112.891 522.596 112.855 508.101L112.842 473.55C112.856 465.056 113.165 457.048 115.136 448.75C124.307 410.139 156.339 381.758 194.909 374.878L212.492 373.232L416.083 373.212C428.453 373.208 439.563 372.992 451.719 375.657C488.525 383.728 518.632 412.774 526.879 449.833C530.222 464.854 528.805 480.471 528.815 495.733L528.875 508.564C529.009 523.947 524.755 524.219 511.878 524.105L430.781 524.087Z"/>
</svg>
