<?xml version="1.0" encoding="utf-8" ?>
<svg xmlns="http://www.w3.org/2000/svg" xmlns:xlink="http://www.w3.org/1999/xlink" width="100" height="100" enable-background="new 0 0 100 100"  style="background-color:#1D4A85">
	<path fill="#FFFFFF" transform="scale(0.15625 0.15625)" d="M444.923 510.728C430.011 504.852 416.189 492.238 413.811 475.667C413.724 475.066 413.708 474.8 413.426 474.255L240.144 473.95C239.351 475.445 239.396 477.489 238.852 479.136C223.531 525.543 156.92 523.619 145.781 478.432C145.403 476.899 145.329 475.452 144.623 474.01L100.938 474.06C98.7918 474.07 96.2079 474.389 94.1738 473.672L92.3241 472.915C84.8299 469.17 82.9326 462.395 82.8811 454.796L82.8138 327.5C83.0948 321.448 88.153 315.706 93.853 314.091L94.357 313.955C96.8894 313.258 99.5369 313.452 102.141 313.47L146.701 313.462L146.674 143.456C146.675 134.605 144.277 122.506 151.163 115.539C156.662 109.976 163.707 111.133 170.827 111.135L394.627 111.11C411.386 111.116 415.918 114.669 415.929 130.721L415.915 196.668L468.895 196.597C483.138 196.62 485.621 203.667 493.101 214.61L561.633 309.104C566.099 315.323 569.501 318.37 569.586 326.181L569.643 446.47C569.674 462.428 569.432 474.014 550.6 474.029L508.254 473.977C507.358 475.108 507.148 479.142 506.586 480.769C497.769 506.312 470.303 519.405 444.923 510.728ZM182.336 146.623L182.283 179.835C182.286 180.731 182.142 181.861 182.46 182.685L379.531 182.636C380.597 182.048 380.483 182.356 380.483 181.646L380.464 157.997C380.46 154.399 380.754 150.528 380.415 146.958L182.336 146.623ZM416.958 231.777C415.468 232.911 415.943 234.429 415.943 235.795L415.927 313.609L519.531 313.495L520.497 313.594C520.241 312.444 519.094 311.163 518.408 310.172L467.607 239.986C459.248 228.181 462.484 231.797 446.566 231.787L416.958 231.777Z"/>
</svg>
