<?xml version="1.0" encoding="utf-8" ?>
<svg xmlns="http://www.w3.org/2000/svg" xmlns:xlink="http://www.w3.org/1999/xlink" width="100" height="100" enable-background="new 0 0 100 100"  style="background-color:#1D4A85">
	<path fill="#FFFFFF" transform="scale(0.15625 0.15625)" d="M534.463 535.604L128.246 535.633C104.352 535.624 100.841 536.988 100.785 508.708L100.735 103.161C100.991 95.7257 106.97 90.6236 114.066 89.8187L385.215 89.8842L385.315 221.412C385.348 245.467 391.615 242.972 410.826 242.904L546.997 242.85C546.476 250.767 546.903 259.006 546.901 266.961L546.9 504.74C546.907 516.62 550.674 532.906 534.463 535.604ZM235.795 155.759C185.814 158.783 151.118 207.453 165.857 255.015C176.497 289.354 207.192 309.834 242.422 309.242C263.33 308.005 281.836 299.742 295.86 283.968C336.699 238.033 311.124 163.877 249.531 156.163C245.12 155.61 240.245 155.675 235.795 155.759ZM161.965 369.025L162.251 397.564C163.639 397.862 165.236 397.722 166.658 397.726L325.902 397.751L326.161 369.198L161.965 369.025ZM230.552 442.039L162.223 442.167L162.232 470.914L259.219 470.887L325.93 471.146C326.519 470.301 326.124 445.404 326.124 442.061L230.552 442.039Z"/>
	<path fill="#FFFFFF" transform="scale(0.15625 0.15625)" d="M520.584 214.713L447.022 214.511C439.884 214.51 415.363 218.072 413.901 208.649L413.86 208.281C413.428 204.65 413.704 200.736 413.703 197.076L413.614 109.268L520.584 214.713Z"/>
	<path fill="#FFFFFF" transform="scale(0.15625 0.15625)" d="M244.451 280.474C241.097 280.715 237.728 280.925 234.375 280.606C178.011 275.242 175.943 191.566 233.946 184.178C300.805 180.098 305.756 273.088 244.451 280.474Z"/>
</svg>
