<?xml version="1.0" encoding="utf-8" ?>
<svg xmlns="http://www.w3.org/2000/svg" xmlns:xlink="http://www.w3.org/1999/xlink" width="100" height="100" enable-background="new 0 0 100 100"  style="background-color:#1D4A85">
	<path fill="#FFFFFF" transform="scale(0.15625 0.15625)" d="M487.031 177.775L97.3977 177.639L97.3544 159.636C97.3504 156.623 97.0229 153.029 97.6484 150.088L97.9401 148.752C100.091 140.08 108.156 140.025 115.237 140.002L131.376 140.036C132.523 140.044 135.027 140.394 135.889 139.878L135.98 119.34C135.967 95.5205 145.206 98.9546 163.697 98.9457L195.442 98.9514L218.245 98.9081C221.276 98.8964 230.416 98.1516 232.809 99.4967L233.125 99.6859C238.589 102.821 241.824 109.641 245.371 114.606L260.201 134.871C261.389 136.496 262.081 138.453 263.447 139.879L366.676 139.967C381.532 139.959 376.64 141.894 384.488 131.042L399.195 110.278C403.073 104.7 406.301 99.2642 413.885 99.0186L485.57 98.9415C500.897 98.9462 505.823 99.5508 505.837 117.704L505.851 139.255C505.868 140.777 508.264 139.943 509.494 139.943L526.764 139.966C541.544 140.009 544.413 142.744 544.36 158.807L544.254 177.831L487.031 177.775Z"/>
	<path fill="#FFFFFF" transform="scale(0.15625 0.15625)" d="M539.428 522.922C536.75 524.947 534.349 525.955 530.976 526.058L126.258 525.965C105.661 525.977 97.3417 529.699 97.3431 503.254L97.3886 209.137L544.299 209.942C544.747 215.185 544.314 220.901 544.317 226.187L544.309 497.992C544.303 507.048 546.111 515.747 539.428 522.922ZM354.236 287.83C347.793 295.36 343.887 304.57 339.908 313.542C366.805 322.608 383.58 349.541 378.157 377.654C379.997 379.371 383.185 380.719 385.396 381.996L397.377 389.219L404.058 393.296C416.664 350.889 397.257 303.042 354.236 287.83ZM285.733 288.906C271.972 294.635 260.718 303.667 251.264 315.03L270.725 327.602L276.081 330.996C283.633 323.556 291.61 317.687 301.312 313.235C299.619 309.117 290.69 287.451 285.733 288.906ZM238.752 341.062C230.575 359.33 232.919 382.426 239.847 400.679C247.37 420.499 265.801 438.447 285.272 447.079L288.46 448.392C290.201 446.421 291.619 444.31 292.907 442.019L302.291 422.899C276.934 410.814 258.825 390.663 263.418 360.152C263.483 359.719 264.118 356.698 263.997 356.469C263.35 355.241 241.85 343.099 238.752 341.062ZM366.241 403.491L365.956 403.867C359.165 412.722 349.322 418.174 339.127 422.132C340.612 425.693 350.354 446.349 353.026 448.566L360.469 445.302C373.187 438.507 383.111 429.577 391.502 417.906L379.52 410.731C375.251 408.099 370.932 405.314 366.241 403.491Z"/>
</svg>
