<?xml version="1.0" encoding="utf-8" ?>
<svg xmlns="http://www.w3.org/2000/svg" xmlns:xlink="http://www.w3.org/1999/xlink" width="100" height="100" enable-background="new 0 0 100 100"  style="background-color:#1D4A85">
	<path fill="#FFFFFF" transform="scale(0.15625 0.15625)" d="M544.568 525.4L102.397 525.603C88.7707 524.98 90.2892 510.112 90.2867 501.138L90.3073 117.368C90.5721 110.54 95.8862 106.389 102.259 105.405L229.297 105.343C233.563 105.5 236.15 108.647 239.14 111.376L268.925 137.758C271.853 140.278 272.044 141.769 276.004 141.772L544.298 141.723C545.392 141.751 546.436 141.792 547.436 142.293L549.632 143.521C556.632 148.314 555.299 155.859 555.298 163.171L555.286 512.773C555.145 519.16 551.08 524.392 544.568 525.4ZM308.008 253.8C288.632 255.007 273.676 267.116 268.764 285.76C267.131 291.959 267.348 307.651 268.023 314.6L256.778 314.608C254.217 314.618 251.376 314.454 248.897 315.138L248.42 315.266C242.423 316.937 238.407 321.044 238.236 327.188L238.164 410.259C238.166 413.835 237.725 418.134 238.616 421.595L238.728 422.056C241.274 432.054 250.393 431.027 258.305 430.988L335.781 430.951L389.823 430.967C405.744 430.94 404.62 422.197 404.637 410.137L404.65 326.719C404.405 316.008 394.407 314.64 386.094 314.61L375.357 314.656L375.66 300.021C375.659 295.697 375.804 291.335 375.042 287.06C372.275 271.531 358.633 258.569 343.723 254.649C337.843 253.103 330.76 253.755 324.699 253.757L308.008 253.8Z"/>
	<path fill="#FFFFFF" transform="scale(0.15625 0.15625)" d="M333.281 314.568L294.737 314.602L294.74 300.677C294.771 288.948 296.804 280.713 310.166 280.151L328.402 280.115C346.439 280.128 348.703 283.992 348.75 301.962L348.758 314.551L333.281 314.568Z"/>
	<path fill="#FFFFFF" transform="scale(0.15625 0.15625)" d="M378.158 403.906C376.242 404.792 373.023 404.374 370.794 404.373L265.327 404.394C264.855 403.1 265.133 400.811 265.128 399.395L265.095 340.919L378.107 341.024L378.158 403.906Z"/>
</svg>
